# xmcd
#
# Track frame offsets:
#	150
#	12524
#	31432
#	54195
#	68461
#	88929
#	106881
#	120794
#	138872
#	166359
#	180372
#	197661
#	215587
#	229573
#	253696
#	267529
#
# Disc length: 3779 seconds
# Revision: 0
# Processed by: cddbd v1.5.2PL0 Copyright (c) Steve Scherf et al.
# Submitted via: dBpowerAMP V12.0
#
DISCID=d00ec110
DTITLE=Sven Curth - Con Disco Rotatorio
DYEAR=2011
DGENRE=Blues
TTITLE0=I don't smoke
TTITLE1=How come
TTITLE2=Go away, cloudy day
TTITLE3=If yer tryin'
TTITLE4=Merry xmas
TTITLE5=Running blind
TTITLE6=Comes a day
TTITLE7=Tired of my own love
TTITLE8=Who I am
TTITLE9=Worse before better
TTITLE10=I could care less
TTITLE11=Plain to see
TTITLE12=Jesus loves tractors
TTITLE13=Wonder what
TTITLE14=Shotgun
TTITLE15=F'em if they can't take a joke
EXTD=
EXTT0=
EXTT1=
EXTT2=
EXTT3=
EXTT4=
EXTT5=
EXTT6=
EXTT7=
EXTT8=
EXTT9=
EXTT10=
EXTT11=
EXTT12=
EXTT13=
EXTT14=
EXTT15=
PLAYORDER=
